<svg xmlns="http://www.w3.org/2000/svg" viewBox="0 0 24 24" width="24" height="24" fill="none"><defs><linearGradient id="a-_r_1_" x1="46.77" x2="69.91" y1="86.46" y2="126.73" gradientTransform="matrix(8.78996,0,0,8.78996,-233.98,-518.97)" gradientUnits="userSpaceOnUse"><stop stop-color="#927be5"></stop><stop offset="1" stop-color="#512bd4"></stop></linearGradient><filter id="b-_r_1_" width="42.84" height="39.14" x="44.63" y="91.89" color-interpolation-filters="sRGB" filterUnits="userSpaceOnUse"><feFlood flood-opacity="0" result="BackgroundImageFix"></feFlood><feColorMatrix in="SourceAlpha" result="hardAlpha" values="0 0 0 0 0 0 0 0 0 0 0 0 0 0 0 0 0 0 127 0"></feColorMatrix><feOffset></feOffset><feColorMatrix values="0 0 0 0 0 0 0 0 0 0 0 0 0 0 0 0 0 0 0.1 0"></feColorMatrix><feBlend in2="BackgroundImageFix" result="effect1_dropShadow_2037_2800"></feBlend><feColorMatrix in="SourceAlpha" result="hardAlpha" values="0 0 0 0 0 0 0 0 0 0 0 0 0 0 0 0 0 0 127 0"></feColorMatrix><feOffset dy="1"></feOffset><feGaussianBlur stdDeviation="2.5"></feGaussianBlur><feColorMatrix values="0 0 0 0 0 0 0 0 0 0 0 0 0 0 0 0 0 0 0.1 0"></feColorMatrix><feBlend in2="effect1_dropShadow_2037_2800" result="effect2_dropShadow_2037_2800"></feBlend><feColorMatrix in="SourceAlpha" result="hardAlpha" values="0 0 0 0 0 0 0 0 0 0 0 0 0 0 0 0 0 0 127 0"></feColorMatrix><feOffset dy="4"></feOffset><feGaussianBlur stdDeviation="2"></feGaussianBlur><feColorMatrix values="0 0 0 0 0 0 0 0 0 0 0 0 0 0 0 0 0 0 0.09 0"></feColorMatrix><feBlend in2="effect2_dropShadow_2037_2800" result="effect3_dropShadow_2037_2800"></feBlend><feColorMatrix in="SourceAlpha" result="hardAlpha" values="0 0 0 0 0 0 0 0 0 0 0 0 0 0 0 0 0 0 127 0"></feColorMatrix><feOffset dy="9"></feOffset><feGaussianBlur stdDeviation="2.5"></feGaussianBlur><feColorMatrix values="0 0 0 0 0 0 0 0 0 0 0 0 0 0 0 0 0 0 0.05 0"></feColorMatrix><feBlend in2="effect3_dropShadow_2037_2800" result="effect4_dropShadow_2037_2800"></feBlend><feColorMatrix in="SourceAlpha" result="hardAlpha" values="0 0 0 0 0 0 0 0 0 0 0 0 0 0 0 0 0 0 127 0"></feColorMatrix><feOffset dy="15"></feOffset><feGaussianBlur stdDeviation="3"></feGaussianBlur><feColorMatrix values="0 0 0 0 0 0 0 0 0 0 0 0 0 0 0 0 0 0 0.01 0"></feColorMatrix><feBlend in2="effect4_dropShadow_2037_2800" result="effect5_dropShadow_2037_2800"></feBlend><feBlend in="SourceGraphic" in2="effect5_dropShadow_2037_2800" result="shape"></feBlend></filter></defs><path fill="url(#a-_r_1_)" d="M135.73 285.85v173.93a60.2 60.2 0 0 0 30.13 52.17l150.62 86.97a60.2 60.2 0 0 0 60.25 0l150.62-86.97a60.2 60.2 0 0 0 30.13-52.17V285.85a60.2 60.2 0 0 0-30.13-52.18l-150.62-86.95a60.2 60.2 0 0 0-60.25 0l-150.62 86.95a60.3 60.3 0 0 0-30.13 52.18" transform="scale(0.44288615) matrix(0.1,0,0,0.1,-7.57,-10.19)"></path><path fill="#fff" d="M54.06 98.03v6.86a1.7 1.7 0 0 0 1.71 1.7 1.7 1.7 0 0 0 1.71-1.7 1.71 1.71 0 1 1 3.43 0 5.14 5.14 0 1 1-10.28 0v-6.86a5.14 5.14 0 1 1 10.28 0 1.71 1.71 0 1 1-3.43 0 1.71 1.71 0 1 0-3.42 0zm27.41 6.86a1.7 1.7 0 0 1-1.71 1.7h-1.71v1.72c0 .46-.18.9-.5 1.21a1.7 1.7 0 0 1-2.43 0 1.7 1.7 0 0 1-.5-1.2v-1.72h-3.43v1.71a1.7 1.7 0 0 1-1.71 1.72 1.7 1.7 0 0 1-1.72-1.72v-1.71h-1.71a1.71 1.71 0 1 1 0-3.43h1.71v-3.43h-1.71a1.71 1.71 0 1 1 0-3.42h1.71V94.6a1.71 1.71 0 1 1 3.43 0v1.72h3.43V94.6a1.71 1.71 0 1 1 3.43 0v1.72h1.7c.46 0 .9.18 1.22.5a1.7 1.7 0 0 1 0 2.42 1.7 1.7 0 0 1-1.21.5h-1.71v3.43h1.7a1.7 1.7 0 0 1 1.72 1.71m-6.85-5.14h-3.43v3.42h3.43z" filter="url(#b-_r_1_)" style="mix-blend-mode: screen;" transform="scale(0.44288615) matrix(0.879,0,0,0.879,-30.96,-62.09)"></path></svg>