<svg xmlns="http://www.w3.org/2000/svg" width="24" height="10" viewBox="0 0 24 10" fill="none">
  <path fill-rule="evenodd" clip-rule="evenodd" d="M2.09152 3.28047C2.04596 3.28047 2.03471 3.2576 2.0574 3.22366L2.29609 2.91672C2.31859 2.8826 2.37559 2.85991 2.42096 2.85991H6.4779C6.52346 2.85991 6.53471 2.89404 6.51202 2.92816L6.3189 3.22366C6.29621 3.2576 6.2394 3.29172 6.20527 3.29172L2.09152 3.28047ZM0.375523 4.32579C0.330148 4.32579 0.31871 4.30329 0.341398 4.26897L0.580085 3.96222C0.602773 3.9281 0.659585 3.90541 0.705148 3.90541H5.8869C5.93227 3.90541 5.95515 3.93954 5.94371 3.97366L5.85277 4.24629C5.84152 4.29185 5.79596 4.31454 5.75059 4.31454L0.375523 4.32579ZM3.1254 5.37129C3.08002 5.37129 3.06877 5.33716 3.09146 5.30304L3.25046 5.01897C3.27334 4.98485 3.31871 4.95091 3.36427 4.95091H5.63677C5.68233 4.95091 5.70502 4.98485 5.70502 5.03041L5.68252 5.30304C5.68252 5.3486 5.63696 5.38272 5.60284 5.38272L3.1254 5.37129ZM14.921 3.07591C14.205 3.25779 13.7163 3.3941 13.0119 3.57579C12.8413 3.62135 12.83 3.6326 12.6823 3.46216C12.5118 3.26904 12.3868 3.14397 12.1483 3.03035C11.4322 2.67822 10.739 2.78041 10.0914 3.20097C9.31871 3.70085 8.92102 4.43941 8.93227 5.35985C8.94352 6.26904 9.56865 7.01904 10.4664 7.1441C11.2391 7.24629 11.8869 6.97347 12.3982 6.3941C12.5004 6.26904 12.5913 6.13272 12.705 5.97354H10.5118C10.2733 5.97354 10.2165 5.82579 10.296 5.63266C10.4437 5.28035 10.7163 4.68954 10.8753 4.39404C10.9096 4.32579 10.9891 4.21216 11.1596 4.21216H15.2958C15.2733 4.5191 15.2733 4.82585 15.2278 5.13279C15.1027 5.95085 14.796 6.70085 14.2959 7.35991C13.4776 8.43954 12.4096 9.10985 11.0572 9.29173C9.94365 9.43948 8.90958 9.22347 8.00059 8.54172C7.15965 7.90535 6.68246 7.06441 6.5574 6.0191C6.40965 4.78047 6.77321 3.66672 7.52321 2.68947C8.33002 1.63272 9.39821 0.962224 10.7051 0.723537C11.7733 0.530412 12.7959 0.655474 13.7163 1.28041C14.3186 1.6781 14.7504 2.22354 15.0345 2.8826C15.1027 2.98497 15.0573 3.04179 14.9208 3.07572L14.921 3.07591Z" fill="#00ACD7"/>
  <path d="M18.6822 9.36017C17.6481 9.3373 16.7048 9.04198 15.9094 8.36005C15.2389 7.78067 14.8186 7.04192 14.6822 6.16686C14.4777 4.88286 14.8298 3.74642 15.6027 2.73523C16.4322 1.64417 17.4321 1.07605 18.7846 0.837359C19.9435 0.632984 21.0346 0.746609 22.0231 1.41692C22.9208 2.03061 23.4775 2.86011 23.6252 3.95098C23.8184 5.48511 23.3753 6.73517 22.3184 7.80336C21.5684 8.56461 20.6479 9.04198 19.5912 9.2578C19.2844 9.31461 18.9775 9.32605 18.6822 9.36017ZM21.3867 4.76923C21.3754 4.62148 21.3754 4.50786 21.3526 4.39423C21.1482 3.26923 20.1139 2.63286 19.0345 2.88298C17.9776 3.12148 17.2958 3.79198 17.0459 4.86017C16.8413 5.74648 17.2731 6.64423 18.0912 7.0078C18.7163 7.28061 19.3412 7.24648 19.9435 6.93973C20.8412 6.4738 21.3299 5.74648 21.3867 4.76923Z" fill="#00ACD7"/>
</svg>