<svg xmlns="http://www.w3.org/2000/svg" width="24" height="24" viewBox="0 0 24 24" fill="none">
  <path d="M8.92873 18.3976C8.92873 18.3976 8.03492 18.9178 9.56567 19.0933C11.4204 19.3051 12.3682 19.2748 14.4116 18.8885C14.4116 18.8885 14.9499 19.2251 15.7003 19.5168C11.118 21.4799 5.33004 19.403 8.92873 18.3976ZM8.36848 15.8354C8.36848 15.8354 7.36573 16.5778 8.89779 16.7364C10.8791 16.9409 12.4434 16.9576 15.1517 16.4364C15.1517 16.4364 15.5254 16.8161 16.1139 17.0234C10.5748 18.6434 4.40529 17.1509 8.36848 15.8354Z" fill="#0074BD"/>
  <path d="M13.088 11.4882C14.2177 12.7885 12.7917 13.9576 12.7917 13.9576C12.7917 13.9576 15.6584 12.478 14.3422 10.6244C13.1123 8.89656 12.1696 8.03838 17.2737 5.07812C17.2737 5.07831 9.26166 7.07875 13.088 11.4882Z" fill="#EA2D2E"/>
  <path d="M19.148 20.2928C19.148 20.2928 19.8096 20.8384 18.419 21.2601C15.7748 22.0611 7.41158 22.3026 5.08883 21.2922C4.25427 20.9288 5.81989 20.425 6.31246 20.3187C6.82602 20.2075 7.11927 20.2278 7.11927 20.2278C6.19058 19.5739 1.11683 21.5121 4.54246 22.0681C13.8839 23.5823 21.5706 21.3861 19.148 20.2928ZM9.35839 13.18C9.35839 13.18 5.10477 14.1904 7.85221 14.5577C9.01246 14.713 11.3243 14.6774 13.4793 14.4966C15.2399 14.3487 17.0067 14.0328 17.0067 14.0328C17.0067 14.0328 16.3865 14.2988 15.9372 14.6052C11.6168 15.7416 3.27271 15.2123 5.67514 14.0506C7.70614 13.0682 9.35839 13.18 9.35839 13.18ZM16.9891 17.4451C21.3805 15.1638 19.3499 12.9713 17.9326 13.2666C17.5861 13.3388 17.4306 13.4016 17.4306 13.4016C17.4306 13.4016 17.5596 13.1993 17.8056 13.1123C20.6093 12.127 22.7652 16.0191 16.9013 17.5608C16.9013 17.5604 16.9686 17.4994 16.9891 17.4451Z" fill="#0074BD"/>
  <path d="M14.342 0.297363C14.342 0.297363 16.7735 2.73036 12.0352 6.47043C8.23535 9.47155 11.1688 11.1823 12.0339 13.1377C9.81559 11.1366 8.18847 9.37461 9.27991 7.73493C10.8827 5.32855 15.3228 4.16136 14.342 0.297363Z" fill="#EA2D2E"/>
  <path d="M9.78928 23.6291C14.0035 23.8986 20.4768 23.4791 20.63 21.4849C20.63 21.4849 20.3354 22.2409 17.1468 22.8407C13.5494 23.5179 9.11166 23.439 6.48047 23.0046C6.48047 23.0047 7.01953 23.451 9.78928 23.6291Z" fill="#0074BD"/>
</svg>