<svg xmlns="http://www.w3.org/2000/svg" width="24" height="24" viewBox="0 0 24 24" fill="none">
  <g clip-path="url(#clip0_658_37688)">
    <path d="M4.25 8.8125H22.9381V22.6256H4.25V8.8125Z" fill="white"/>
    <path d="M0.28125 11.9829V23.7017H23.7188V0.26416H0.28125V11.9829ZM19.1681 11.0454C19.7295 11.1757 20.2397 11.4693 20.6344 11.8892C20.8517 12.1154 21.0406 12.3672 21.1969 12.6392C21.1969 12.6692 20.1844 13.3535 19.5675 13.736C19.545 13.751 19.455 13.6535 19.3556 13.5054C19.243 13.3111 19.083 13.1485 18.8905 13.0327C18.6981 12.917 18.4794 12.8519 18.255 12.8435C17.5444 12.7948 17.0869 13.1679 17.0906 13.781C17.0847 13.9337 17.1197 14.0851 17.1919 14.2198C17.3475 14.5442 17.6381 14.7373 18.5494 15.131C20.2275 15.8529 20.9456 16.3292 21.3919 17.006C21.8906 17.756 22.0012 18.9673 21.6637 19.8635C21.2887 20.8385 20.37 21.5004 19.0706 21.7198C18.4772 21.7878 17.8775 21.7815 17.2856 21.701C16.3784 21.5515 15.5428 21.1159 14.9006 20.4579C14.685 20.2198 14.265 19.5992 14.2913 19.5542C14.3597 19.5033 14.4318 19.4576 14.5069 19.4173L15.375 18.9373L16.0481 18.5473L16.1887 18.7554C16.4261 19.0949 16.7281 19.3842 17.0775 19.6067C17.8275 20.0004 18.8512 19.946 19.3575 19.4904C19.5275 19.3235 19.6335 19.1022 19.6572 18.8651C19.6808 18.628 19.6205 18.3901 19.4869 18.1929C19.2994 17.9323 18.9244 17.7129 17.8762 17.2554C16.6669 16.7342 16.1456 16.4117 15.6694 15.8979C15.3721 15.5589 15.1526 15.1589 15.0262 14.726C14.932 14.2315 14.9181 13.725 14.985 13.226C15.2344 12.0579 16.11 11.2423 17.3888 11.0004C17.981 10.9271 18.5808 10.9436 19.1681 11.0492V11.0454ZM13.6669 12.0279V12.9879H10.6237V21.656H8.46563V12.986H5.415V12.0485C5.4055 11.7252 5.41301 11.4017 5.4375 11.0792C5.4525 11.0623 7.3125 11.0623 9.5625 11.0623H13.6556L13.6669 12.0279Z" fill="#007ACC"/>
  </g>
  <defs>
    <clipPath id="clip0_658_37688">
      <rect width="24" height="24" fill="white"/>
    </clipPath>
  </defs>
</svg>